<svg version="1.1" id="Layer_1" xmlns="http://www.w3.org/2000/svg" xmlns:xlink="http://www.w3.org/1999/xlink" x="0px" y="0px"
	 width="100%" viewBox="0 0 1024 1024" enable-background="new 0 0 1024 1024" xml:space="preserve">
<path fill="#000000" opacity="1.000000" stroke="none" 
	d="
M82.756607,577.995361 
	C87.687012,556.657166 95.473434,536.884399 106.667702,518.544128 
	C108.969681,514.772583 109.007538,511.973541 106.772247,508.139587 
	C93.916603,486.089478 84.547928,462.635651 80.677834,437.314514 
	C72.456337,383.523193 84.435509,334.798981 118.466331,291.991364 
	C144.368301,259.409058 177.937271,238.581192 218.210541,228.570023 
	C223.665802,227.213974 225.800568,224.525894 227.252960,219.171783 
	C245.785950,150.852005 288.614685,105.564514 356.707092,85.433662 
	C400.296722,72.546814 442.964966,77.425331 484.412689,95.379570 
	C492.387299,98.833984 500.082489,102.831749 507.447113,107.356491 
	C511.793640,110.026970 515.111145,109.739365 519.322815,107.212677 
	C540.507019,94.503754 563.158569,85.335487 587.595337,81.343018 
	C640.916138,72.631531 689.515015,84.045662 732.675293,116.857834 
	C763.046936,139.947525 783.443359,170.234070 795.513000,206.249146 
	C797.198486,211.278625 798.396851,216.494385 799.479065,221.695023 
	C800.219238,225.252167 802.015015,226.932938 805.582397,227.792328 
	C826.298828,232.782852 845.967346,240.492859 863.782471,252.279495 
	C910.230408,283.009918 938.112183,325.854156 946.305054,381.060944 
	C952.622375,423.629395 944.008728,463.592194 923.161804,500.895416 
	C918.320190,509.559113 917.405151,516.260132 922.959595,525.276367 
	C936.586914,547.397034 943.783752,572.140137 947.047302,597.743286 
	C951.148438,629.917542 946.721802,661.254089 933.644043,691.032043 
	C909.391052,746.255554 867.957886,781.760986 809.666931,797.282349 
	C803.394409,798.952576 800.366089,801.419861 798.488159,808.099426 
	C777.105408,884.154541 727.231750,930.179077 649.884277,945.259155 
	C602.751526,954.448425 559.025452,942.711731 518.329529,918.485779 
	C514.227539,916.043823 511.503326,916.287598 507.637909,918.671082 
	C482.152039,934.386169 454.403412,944.343262 424.671082,947.026489 
	C366.907623,952.239502 317.079620,934.026306 275.543365,893.466370 
	C263.296387,881.507324 253.332794,867.793701 245.121429,852.791321 
	C244.082031,850.892395 242.987946,849.023254 241.906479,847.147644 
	C241.659988,846.720093 241.360641,846.323059 240.791550,845.472656 
	C235.920944,848.856201 231.302963,852.016968 226.734070,855.247192 
	C213.809998,864.384644 200.815231,873.426758 188.049805,882.781372 
	C184.245529,885.569153 182.048294,884.931763 179.698959,881.220581 
	C176.581512,876.296021 173.306290,871.456360 169.834747,866.776123 
	C167.564484,863.715454 168.337402,861.963745 171.247070,859.943787 
	C189.175461,847.497437 206.931183,834.800720 224.938431,822.470825 
	C228.892944,819.763123 229.210617,817.295471 228.610184,812.634460 
	C227.346069,802.821655 222.614700,798.939880 213.046234,796.381104 
	C169.698944,784.789246 135.117050,760.071045 109.912506,722.924255 
	C91.625656,695.972839 81.254478,666.050781 78.522690,633.434753 
	C76.961563,614.795715 78.894218,596.567505 82.756607,577.995361 
M151.494568,280.012573 
	C139.645905,289.927979 129.658981,301.488770 121.363174,314.490875 
	C97.815941,351.396667 89.192337,391.511292 96.089134,434.779083 
	C100.346451,461.487762 110.523621,485.965790 125.370255,508.490326 
	C127.654793,511.956299 127.634850,514.453674 125.369499,517.906311 
	C119.611717,526.681885 114.320236,535.776489 110.046516,545.383667 
	C94.605286,580.095093 89.024269,616.025513 97.316238,653.518494 
	C107.471931,699.438660 131.837036,735.682617 171.479187,761.308411 
	C190.593307,773.664246 211.479279,781.692017 233.889359,785.635620 
	C237.405396,786.254333 239.064514,787.689209 239.469971,791.353455 
	C239.906067,795.294678 241.022598,799.172852 241.998886,803.039062 
	C243.373520,808.482666 244.263718,808.763733 248.988113,805.430481 
	C291.596313,775.368408 334.206635,745.309326 376.777191,715.194092 
	C378.410095,714.039001 380.661224,713.272339 381.185455,710.980835 
	C379.849182,709.589294 378.320435,709.603638 376.863007,709.288208 
	C367.240753,707.205872 357.719543,704.725769 349.038239,699.918457 
	C322.350616,685.140137 304.356934,662.410583 291.047241,635.610840 
	C274.565155,602.423340 266.816132,566.947815 264.951660,530.167358 
	C262.686859,485.488861 268.819153,442.114532 287.078796,400.916534 
	C298.105377,376.037903 313.020142,353.996704 335.167694,337.553619 
	C355.751801,322.271332 378.631287,315.178802 404.244537,319.887909 
	C423.884186,323.498749 440.243408,333.742950 454.270538,347.530945 
	C476.769867,369.646790 491.053589,396.683624 500.273651,426.618469 
	C501.592987,430.902039 502.250854,435.473969 505.046082,440.221008 
	C508.893066,427.422394 512.548157,415.501404 517.568970,404.063416 
	C529.116333,377.757141 544.073425,353.804718 567.843079,336.870239 
	C598.555786,314.989258 631.121582,311.711365 664.495850,330.684326 
	C684.849365,342.255127 699.526306,359.771301 711.305603,379.663818 
	C734.641724,419.072845 743.890137,462.325226 745.188354,507.594818 
	C745.714661,525.945435 744.178894,544.230896 741.235229,562.312561 
	C734.712769,602.377808 721.272522,639.631348 694.980591,671.355835 
	C679.197632,690.399963 659.876038,703.846863 635.218384,708.713196 
	C629.083618,709.923889 622.838867,710.253784 615.040527,710.536560 
	C622.838074,715.592285 629.254639,719.983582 635.911316,723.974365 
	C639.419067,726.077454 640.196289,727.917847 637.533142,731.363586 
	C634.177490,735.705383 631.264221,740.392395 628.216858,744.968262 
	C624.541809,750.486938 624.524536,750.567932 619.058472,746.883362 
	C579.961731,720.528442 540.869324,694.166870 501.828186,667.729797 
	C498.789948,665.672424 496.532990,664.847656 493.015289,667.362671 
	C456.152740,693.717346 419.193329,719.937439 382.161499,746.054016 
	C341.046478,775.050293 299.851685,803.933716 258.610474,832.750183 
	C255.309402,835.056824 254.244293,836.874268 256.300415,840.801147 
	C274.417267,875.401367 301.090424,900.999878 336.593964,917.206909 
	C365.597961,930.447021 395.946594,935.251770 427.689972,930.944214 
	C456.798370,926.994080 483.373627,916.597534 507.570007,900.094238 
	C511.417328,897.470215 514.354309,897.112183 518.303833,899.929871 
	C533.622437,910.858765 550.547058,918.671753 568.432434,924.335266 
	C592.726318,932.028137 617.535217,934.533020 642.858948,930.913330 
	C659.790405,928.493164 676.067810,923.789062 691.496399,916.425781 
	C717.224121,904.147278 738.711548,886.699036 755.658447,863.635742 
	C771.854980,841.593567 781.812866,817.000427 786.628113,790.217651 
	C787.132874,787.410156 788.566711,786.265320 791.159668,785.794373 
	C827.628784,779.170349 859.381165,763.354370 885.011536,736.362610 
	C921.720825,697.703491 937.249878,651.557739 931.326904,598.622742 
	C928.362915,572.131958 919.723267,547.142639 904.776367,525.030151 
	C898.518860,515.772888 899.772522,509.442535 905.203674,500.717987 
	C927.806335,464.408966 937.241821,424.941528 930.651611,382.279144 
	C923.395264,335.304474 900.203064,297.875061 861.926819,269.880005 
	C841.729919,255.108093 819.110107,245.639038 794.464233,241.209198 
	C789.691650,240.351364 787.300842,238.578629 786.236450,233.239426 
	C778.257202,193.213791 759.868408,158.920975 727.841370,133.002563 
	C684.426880,97.868668 635.096191,86.763901 580.584839,98.618233 
	C557.815430,103.569794 537.143555,113.413185 517.940369,126.392082 
	C514.289307,128.859695 511.660767,128.759109 508.121887,126.323151 
	C502.644867,122.553101 496.914673,119.082413 491.027802,115.986938 
	C441.214447,89.793770 389.839264,85.669899 338.061249,108.536659 
	C284.660828,132.119934 252.963226,174.179443 240.295059,230.888992 
	C238.087509,240.771194 240.469101,239.179718 230.197281,241.401581 
	C201.027466,247.711227 174.644623,259.780609 151.494568,280.012573 
M511.335419,534.251282 
	C511.632751,536.895691 511.967194,539.536621 512.221741,542.185120 
	C515.145020,572.603821 522.222473,601.948120 536.070618,629.307678 
	C546.714966,650.337585 560.318909,669.170471 580.345032,682.475525 
	C594.935730,692.169495 610.801147,697.416626 628.523804,695.026917 
	C652.201904,691.834229 670.203918,678.849670 684.788330,660.879333 
	C711.827942,627.562378 723.885864,588.326416 728.710815,546.406555 
	C731.503479,522.144470 731.241272,497.929779 727.783081,473.724335 
	C723.138245,441.212891 713.722046,410.356293 695.919800,382.523285 
	C684.551453,364.749390 670.503052,349.571075 651.133850,340.092896 
	C627.032654,328.299164 596.831787,331.572449 578.333862,348.255646 
	C602.159729,341.135101 622.928955,346.745514 641.217407,362.542114 
	C653.518738,373.167328 662.712891,386.248596 669.220093,401.049927 
	C680.905334,427.629120 684.986084,455.467163 682.482178,484.410187 
	C680.323547,509.363892 673.792847,532.853699 660.553650,554.244995 
	C654.646667,563.789124 647.474609,572.271179 638.540771,579.236511 
	C611.021057,600.692505 577.637878,599.252136 552.257751,575.054138 
	C531.838196,555.585693 521.060059,531.017273 515.733887,503.748322 
	C514.709717,498.504761 513.922302,493.214966 513.025696,487.946503 
	C509.576263,503.083344 510.217102,518.192078 511.335419,534.251282 
M449.539490,446.099945 
	C452.687958,465.211426 451.857697,484.230408 448.256378,503.193237 
	C443.071289,530.495422 432.439117,555.051453 412.091248,574.656616 
	C384.892914,600.862183 346.252380,600.622559 319.197510,574.250183 
	C300.220154,555.751526 290.375427,532.598694 284.720551,507.275879 
	C283.594177,502.231964 282.656006,497.146027 281.531372,491.586670 
	C279.212219,493.612000 279.370392,495.509064 279.328827,497.284302 
	C278.802246,519.789062 279.136536,542.227356 283.320221,564.472473 
	C289.360565,596.589539 299.666901,626.992432 319.090637,653.676819 
	C334.465302,674.798645 353.551208,690.901978 380.304718,695.071655 
	C390.870697,696.718323 401.770416,696.731140 411.262390,690.565430 
	C421.036987,684.216187 430.119202,676.762512 440.087097,670.759766 
	C451.381927,663.957947 459.098572,654.274597 465.546509,643.231384 
	C468.316956,638.486572 471.104980,633.735962 473.559540,628.825317 
	C488.677155,598.580750 497.501129,566.735840 496.520905,532.714722 
	C496.141724,519.552734 496.149933,506.448944 496.504852,493.287109 
	C497.328522,462.742340 489.269318,433.968201 477.124054,406.268463 
	C467.285217,383.829010 453.774323,363.979462 433.886780,349.098145 
	C418.569031,337.636292 401.623108,331.181854 382.128510,333.265259 
	C368.840454,334.685333 357.087463,339.791443 346.606293,348.034515 
	C376.013824,339.860901 399.614349,350.006805 418.780334,371.674591 
	C437.225830,392.527802 446.182587,417.791168 449.539490,446.099945 
M496.180176,613.590637 
	C493.007080,621.200012 489.834015,628.809387 486.644043,636.459229 
	C488.040314,636.851746 488.912689,636.112793 489.537140,635.499573 
	C494.538483,630.588440 498.971680,631.599792 504.333405,635.553955 
	C513.570129,642.365845 523.394043,648.381653 532.971497,654.731567 
	C520.473755,634.050049 512.068665,611.938477 504.546265,589.063232 
	C501.837189,596.992249 499.128113,604.921204 496.180176,613.590637 
z"/>
</svg>